<svg xmlns="http://www.w3.org/2000/svg" viewBox="0 0 64 64">
  <rect width="64" height="64" rx="12" fill="#ffffff"/>
  <!-- Cloud outline (bright blue) -->
  <path d="M12 28
           c0-5 4-9 9-9
           c1-4 5-7 9-7
           c5 0 9 4 10 8
           c4 0 8 3 8 8
           c0 5-4 8-8 8
           l-26 0
           c-4 0-7-3-7-8z"
        fill="none" stroke="#1e88ff" stroke-width="2.5" stroke-linejoin="round"/>
  <!-- Tree trunk -->
  <line x1="32" y1="36" x2="32" y2="52" stroke="#0a1f3d" stroke-width="2.2" stroke-linecap="round"/>
  <!-- Roots -->
  <path d="M32 52 c-2.5 0.5-5 1.5-7 3
           M32 52 c2.5 0.5 5 1.5 7 3
           M32 49 c-2 0.5-3.5 1-5 2
           M32 49 c2 0.5 3.5 1 5 2"
        stroke="#0a1f3d" stroke-width="1.6" stroke-linecap="round" fill="none"/>
  <!-- Branches up into cloud -->
  <path d="M32 36 L32 22
           M32 28 L24 24
           M32 28 L40 24
           M32 24 L26 19
           M32 24 L38 19"
        stroke="#0a1f3d" stroke-width="1.8" fill="none" stroke-linecap="round"/>
  <!-- Circuit nodes -->
  <circle cx="24" cy="24" r="2.2" fill="#0a1f3d"/>
  <circle cx="40" cy="24" r="2.2" fill="#0a1f3d"/>
  <circle cx="26" cy="19" r="2" fill="#0a1f3d"/>
  <circle cx="38" cy="19" r="2" fill="#0a1f3d"/>
  <circle cx="32" cy="20" r="2.2" fill="#0a1f3d"/>
</svg>
